<?xml version="1.0" standalone="no"?><!DOCTYPE svg PUBLIC "-//W3C//DTD SVG 1.1//EN" "http://www.w3.org/Graphics/SVG/1.1/DTD/svg11.dtd"><svg class="icon" height="512" viewBox="0 0 1024 1024" version="1.1" xmlns="http://www.w3.org/2000/svg"><path d="M774.2976 623.7696a28.3648 28.3648 0 0 0-0.1024-41.0624 30.72 30.72 0 0 0-42.3936-0.1024l-0.3584-0.3072-226.048 218.7776c-70.3488 54.3232-173.568 50.0224-238.6432-13.056a169.9328 169.9328 0 0 1-13.5168-231.0656l329.1648-327.0656a117.248 117.248 0 0 1 142.6944 14.7456c38.7072 37.4784 43.776 95.3856 15.2064 138.1376l-294.2976 285.696a41.3184 41.3184 0 0 1-62.464 6.656 38.1952 38.1952 0 0 1 6.8608-60.5184l231.7312-226.2528c0.9216-0.6656 1.792-1.536 2.6624-2.2528a28.3648 28.3648 0 0 0 0-41.1136 30.72 30.72 0 0 0-43.4176 1.0752l-0.1024-0.1024-234.1376 226.816a95.744 95.744 0 0 0-6.4512 143.872 103.4752 103.4752 0 0 0 148.6848-6.2464L783.872 424.96a165.632 165.632 0 0 0-15.7696-221.8496c-62.4128-60.416-160.6656-65.4848-229.12-15.2576l-328.8064 327.3728a227.3792 227.3792 0 0 0 13.6192 314.368c87.9104 85.0944 227.6352 90.2656 321.8432 15.5648l0.256 0.256 228.6592-221.3376-0.256-0.256z" fill="#6C6C6C" /></svg>